PathFileType	4	(X/Y/Z)	Walk7.trc
DataRate	CameraRate	NumFrames	NumMarkers	Units	OrigDataRate	OrigDataStartFrame	OrigNumFrames
200.000000	200.000000	9	59	mm	200.000000	330	565
Frame#	Times		CLAV		STRN		RBack		RASI		RACR1		RUA1		RElbow		RFA1		RWRU		LACR1		LUA1		LFA1		LCAR		RTH1		RTH3		RTH2		RLFC		LTH1		LTH3		LLFC		LTB1		LTB3		LTB4		LMT1		LASI		LTH4		RCAR		LTH2		C7		LTB2		LToe		T10		LMMAL		RFHD		RTH4		LFHD		RPSI		LMT5		LLMAL		RWRR		LElbowM		LPSI		RBHD		RTB1		LElbow		LBHD		RTB2		RTB4		RTB3		RMT1		RToe		LWRU		LWRR		RMMAL		RLMAL		RMT5		RCAL		RElbowM		LCAL
			X1	Y1	Z1	X2	Y2	Z2	X3	Y3	Z3	X4	Y4	Z4	X5	Y5	Z5	X6	Y6	Z6	X7	Y7	Z7	X8	Y8	Z8	X9	Y9	Z9	X10	Y10	Z10	X11	Y11	Z11	X12	Y12	Z12	X13	Y13	Z13	X14	Y14	Z14	X15	Y15	Z15	X16	Y16	Z16	X17	Y17	Z17	X18	Y18	Z18	X19	Y19	Z19	X20	Y20	Z20	X21	Y21	Z21	X22	Y22	Z22	X23	Y23	Z23	X24	Y24	Z24	X25	Y25	Z25	X26	Y26	Z26	X27	Y27	Z27	X28	Y28	Z28	X29	Y29	Z29	X30	Y30	Z30	X31	Y31	Z31	X32	Y32	Z32	X33	Y33	Z33	X34	Y34	Z34	X35	Y35	Z35	X36	Y36	Z36	X37	Y37	Z37	X38	Y38	Z38	X39	Y39	Z39	X40	Y40	Z40	X41	Y41	Z41	X42	Y42	Z42	X43	Y43	Z43	X44	Y44	Z44	X45	Y45	Z45	X46	Y46	Z46	X47	Y47	Z47	X48	Y48	Z48	X49	Y49	Z49	X50	Y50	Z50	X51	Y51	Z51	X52	Y52	Z52	X53	Y53	Z53	X54	Y54	Z54	X55	Y55	Z55	X56	Y56	Z56	X57	Y57	Z57	X58	Y58	Z58	X59	Y59	Z59

330	1.65	-215.14	1348.3	-35.295	-137.36	1125.2	-33.601	-383.05	1321.7	68.157	-183.16	960.77	114.13	-263.1	1358.5	140.12	-307.23	1150.6	201.83	-341.47	1048	223.46	-296.94	902.97	242.23	-339.44	798.58	261.77	-279.41	1364.9	-202.33	-273.1	1158.1	-257.07	-188.13	931.28	-267.25	-128.85	784.69	-260.67	-238.41	762.9	172.23	-167.07	590.26	136.94	-140.2	709.33	134.25	-144.24	497.43	123.67	-305.76	733.8	-174.92	-300.1	552.18	-133.91	-310.79	443.25	-118.41	-303.85	342.29	-36.365	-367.41	165.64	-32.59	-334.19	251.65	-38.087	-242.84	29.373	-74.724	-196.34	941.79	-155.32	-304.69	638.2	-152.91	-299.34	751.32	261.24	-230.79	643.55	-131.69	-339.77	1425.6	-27.059	-353.95	257.68	-107.24	-289.39	38.476	-44.553	-373.63	1141.5	-24.505	-415.77	73.872	2.7616	-167.16	1591.9	10.06	-202.41	676.22	154.92	-176.49	1591.1	-62.755	-399.7	985.57	54.064	-332.21	22.389	-121.05	-434.58	64.011	-78.186	-286.72	794.29	209.92	-303.57	1019.2	-214.72	-405.88	981.36	-59.515	-336.5	1551.7	52.102	-114.08	372.11	61.352	-270.26	1038	-274.27	-346.79	1561.2	-74.39	-162.29	291.86	126.35	-137.64	282.42	60.47	-160.24	193.51	59.482	-70.404	53.98	91.735	-42.978	46.009	130.43	-184.74	809.73	-279.36	-148.18	824.96	-219.15	-188.76	108.07	29.296	-226.27	95.661	101.93	-128.76	33.446	147.71	-263.09	63.722	46.057	-351.09	1026.4	140.12	-485.9	33.917	-22.452
331	1.655	-209.8	1347.6	-35.172	-132.06	1124.5	-33.846	-377.61	1320.8	68.431	-177.61	959.85	113.95	-257.59	1357.6	140.34	-302.29	1149.8	202	-336.82	1047.4	223.61	-292.96	902.17	242.61	-336	798	262.24	-274.4	1364.4	-202.08	-267.11	1157.8	-257.26	-179.71	932.03	-267.67	-118.49	786.27	-260.86	-232.79	762.52	172.59	-161.58	589.81	137.27	-134.84	708.89	134.06	-138.83	496.34	124.17	-301.45	733.03	-174.68	-296.61	551.4	-133.69	-307.89	442.48	-118.14	-301.74	341.48	-36.035	-366.57	165.28	-32.321	-332.71	251.04	-37.78	-242.79	29.33	-74.835	-191.44	940.82	-155.41	-300.81	637.45	-152.73	-296.27	750.4	261.6	-226.92	642.49	-131.38	-334.47	1424.9	-26.659	-352.27	257.19	-106.97	-289.34	38.434	-44.493	-368.26	1140.8	-24.375	-415.55	73.816	2.9726	-161.73	1591.1	10.349	-196.83	675.8	155.4	-171.14	1590.3	-62.459	-394.21	984.99	54.273	-332.19	22.423	-120.98	-434.37	64.133	-78.066	-283.34	793.37	210.33	-296.17	1018.6	-215.09	-400.65	980.73	-59.263	-331.09	1551.1	52.543	-105.59	371.78	61.524	-263.11	1037.9	-274.67	-341.49	1560.6	-73.931	-150.98	290.05	126.59	-126.24	281.4	60.659	-145.99	191.84	59.647	-51.694	55.115	91.848	-23.996	47.952	130.5	-174.75	810.53	-279.5	-138.29	826.38	-219.41	-171.79	105.57	29.424	-208.77	91.972	102.14	-109.38	32.91	147.96	-244.69	58.897	46.252	-346.31	1025.7	140.26	-485.85	34.166	-22.332
332	1.66	-204.44	1346.9	-35.026	-126.73	1123.6	-34.063	-372.14	1320	68.72	-172.04	958.85	113.81	-252.05	1356.7	140.58	-297.3	1149	202.19	-332.14	1046.7	223.78	-288.91	901.34	243.01	-332.44	797.39	262.73	-269.34	1364	-201.82	-261.14	1157.6	-257.41	-171.32	932.75	-268.06	-108.23	787.82	-261.05	-227.2	762.06	172.93	-156.23	589.24	137.65	-129.56	708.3	133.85	-133.54	495.15	124.72	-297.13	732.24	-174.44	-293.09	550.61	-133.48	-304.98	441.69	-117.88	-299.61	340.66	-35.727	-365.73	164.92	-32.072	-331.21	250.44	-37.495	-242.75	29.279	-74.961	-186.56	939.82	-155.49	-296.89	636.7	-152.57	-293.1	749.45	261.97	-223.02	641.41	-131.07	-329.14	1424.2	-26.241	-350.59	256.7	-106.71	-289.3	38.394	-44.434	-362.86	1140.1	-24.224	-415.33	73.784	3.1662	-156.32	1590.2	10.661	-191.33	675.28	155.9	-165.8	1589.5	-62.14	-388.7	984.38	54.495	-332.18	22.457	-120.91	-434.16	64.268	-77.956	-279.86	792.44	210.77	-288.78	1018	-215.42	-395.42	980.06	-58.997	-325.68	1550.4	52.999	-97.237	371.44	61.709	-255.98	1037.7	-275.03	-336.19	1560	-73.458	-139.72	288.31	126.87	-114.96	280.46	60.873	-131.81	190.34	59.839	-33.111	56.5	91.84	-5.1253	50.18	130.4	-164.84	811.33	-279.62	-128.45	827.78	-219.67	-154.9	103.33	29.593	-191.24	88.537	102.4	-90.003	32.647	148.15	-226.27	54.371	46.533	-341.51	1024.9	140.44	-485.79	34.44	-22.224
333	1.665	-199.04	1346.1	-34.855	-121.37	1122.8	-34.25	-366.65	1319.1	69.026	-166.45	957.76	113.72	-246.49	1355.7	140.84	-292.27	1148.1	202.4	-327.41	1046	223.99	-284.78	900.49	243.43	-328.79	796.75	263.25	-264.24	1363.5	-201.53	-255.17	1157.3	-257.52	-162.97	933.46	-268.43	-98.054	789.36	-261.25	-221.66	761.53	173.26	-151.01	588.54	138.09	-124.37	707.57	133.63	-128.34	493.87	125.3	-292.8	731.45	-174.2	-289.53	549.81	-133.29	-302.05	440.9	-117.64	-297.45	339.83	-35.443	-364.88	164.57	-31.843	-329.71	249.83	-37.232	-242.72	29.22	-75.102	-181.68	938.78	-155.57	-292.96	635.95	-152.42	-289.82	748.48	262.36	-219.1	640.34	-130.76	-323.77	1423.4	-25.807	-348.91	256.22	-106.46	-289.26	38.356	-44.379	-357.45	1139.3	-24.049	-415.11	73.776	3.3425	-150.91	1589.3	10.996	-185.91	674.66	156.42	-160.45	1588.6	-61.799	-383.17	983.72	54.731	-332.17	22.491	-120.84	-433.95	64.416	-77.855	-276.28	791.48	211.22	-281.4	1017.4	-215.69	-390.16	979.37	-58.714	-320.27	1549.6	53.47	-89.013	371.11	61.906	-248.88	1037.4	-275.35	-330.89	1559.3	-72.97	-128.51	286.68	127.18	-103.79	279.62	61.111	-117.73	189.02	60.06	-14.693	58.132	91.715	13.594	52.69	130.16	-155	812.11	-279.73	-118.67	829.17	-219.93	-138.12	101.33	29.804	-173.72	85.372	102.73	-70.688	32.659	148.29	-207.88	50.16	46.898	-336.7	1024.2	140.64	-485.74	34.741	-22.127
334	1.67	-193.6	1345.3	-34.659	-116	1121.9	-34.409	-361.13	1318.2	69.35	-160.84	956.6	113.67	-240.91	1354.7	141.12	-287.19	1147.3	202.64	-322.63	1045.2	224.23	-280.58	899.61	243.87	-325.03	796.07	263.78	-259.1	1363	-201.22	-249.21	1156.9	-257.59	-154.67	934.13	-268.77	-87.974	790.87	-261.45	-216.16	760.93	173.57	-145.93	587.71	138.6	-119.27	706.67	133.4	-123.22	492.51	125.93	-288.45	730.65	-173.98	-285.94	549	-133.1	-299.11	440.09	-117.4	-295.28	338.99	-35.182	-364.01	164.23	-31.632	-328.2	249.22	-36.992	-242.69	29.155	-75.257	-176.82	937.71	-155.64	-289	635.19	-152.29	-286.43	747.5	262.76	-215.16	639.26	-130.45	-318.37	1422.6	-25.355	-347.23	255.74	-106.24	-289.22	38.32	-44.326	-352.01	1138.5	-23.849	-414.88	73.795	3.5019	-145.51	1588.5	11.354	-180.58	673.93	156.97	-155.11	1587.8	-61.435	-377.61	983.03	54.985	-332.16	22.525	-120.77	-433.75	64.579	-77.763	-272.61	790.51	211.69	-274.04	1016.8	-215.93	-384.88	978.65	-58.412	-314.86	1548.9	53.957	-80.917	370.79	62.116	-241.79	1037.2	-275.63	-325.57	1558.5	-72.469	-117.38	285.15	127.53	-92.753	278.87	61.374	-103.78	187.88	60.312	3.5187	60.003	91.48	32.115	55.469	129.76	-145.24	812.88	-279.82	-108.96	830.53	-220.18	-121.49	99.6	30.057	-156.26	82.491	103.11	-51.483	32.943	148.36	-189.55	46.271	47.347	-331.87	1023.3	140.88	-485.69	35.072	-22.039
335	1.675	-188.14	1344.4	-34.437	-110.6	1120.9	-34.537	-355.58	1317.2	69.694	-155.2	955.38	113.65	-235.29	1353.6	141.43	-282.07	1146.4	202.91	-317.81	1044.4	224.49	-276.31	898.7	244.33	-321.17	795.37	264.33	-253.92	1362.4	-200.9	-243.25	1156.5	-257.63	-146.42	934.79	-269.08	-77.99	792.36	-261.66	-210.69	760.25	173.87	-140.98	586.75	139.19	-114.25	705.62	133.16	-118.18	491.09	126.59	-284.1	729.85	-173.76	-282.33	548.19	-132.93	-296.16	439.29	-117.18	-293.09	338.15	-34.944	-363.14	163.89	-31.439	-326.67	248.62	-36.775	-242.67	29.084	-75.424	-171.96	936.62	-155.71	-285.02	634.43	-152.17	-282.94	746.49	263.19	-211.19	638.18	-130.15	-312.94	1421.8	-24.884	-345.56	255.26	-106.02	-289.19	38.286	-44.276	-346.56	1137.7	-23.62	-414.64	73.842	3.6453	-140.11	1587.6	11.735	-175.33	673.11	157.54	-149.76	1586.9	-61.048	-372.03	982.3	55.26	-332.16	22.559	-120.71	-433.55	64.761	-77.68	-268.83	789.52	212.19	-266.69	1016.1	-216.11	-379.59	977.9	-58.088	-309.45	1548	54.457	-72.946	370.48	62.339	-234.74	1036.9	-275.86	-320.26	1557.7	-71.954	-106.34	283.74	127.91	-81.855	278.22	61.661	-89.985	186.93	60.597	21.478	62.099	91.147	50.389	58.501	129.24	-135.56	813.64	-279.89	-99.315	831.87	-220.43	-105.04	98.122	30.353	-138.9	79.903	103.55	-32.445	33.495	148.37	-171.35	42.709	47.877	-327.03	1022.5	141.14	-485.63	35.435	-21.959
336	1.68	-182.65	1343.6	-34.188	-105.18	1119.9	-34.636	-350.01	1316.3	70.061	-149.54	954.11	113.68	-229.65	1352.5	141.76	-276.91	1145.4	203.19	-312.93	1043.5	224.79	-271.96	897.77	244.8	-317.22	794.63	264.89	-248.69	1361.8	-200.55	-237.3	1156.1	-257.63	-138.22	935.41	-269.35	-68.103	793.83	-261.87	-205.26	759.49	174.15	-136.16	585.67	139.85	-109.31	704.42	132.93	-113.17	489.61	127.28	-279.72	729.05	-173.55	-278.69	547.37	-132.78	-293.2	438.47	-116.97	-290.88	337.31	-34.727	-362.27	163.56	-31.263	-325.13	248.02	-36.579	-242.65	29.008	-75.601	-167.12	935.51	-155.77	-281.01	633.67	-152.05	-279.34	745.47	263.63	-207.21	637.09	-129.85	-307.48	1421	-24.393	-343.89	254.8	-105.83	-289.16	38.254	-44.229	-341.09	1136.8	-23.36	-414.39	73.917	3.7741	-134.72	1586.7	12.139	-170.15	672.18	158.14	-144.42	1586	-60.639	-366.43	981.53	55.563	-332.15	22.593	-120.65	-433.34	64.962	-77.605	-264.96	788.51	212.7	-259.37	1015.5	-216.26	-374.28	977.13	-57.737	-304.04	1547.2	54.973	-65.095	370.19	62.573	-227.7	1036.6	-276.06	-314.93	1556.8	-71.424	-95.406	282.46	128.32	-71.11	277.67	61.971	-76.371	186.16	60.913	39.136	64.399	90.731	68.361	61.761	128.59	-125.96	814.38	-279.94	-89.749	833.18	-220.68	-88.831	96.895	30.692	-121.7	77.615	104.04	-13.637	34.303	148.33	-153.32	39.475	48.488	-322.17	1021.6	141.43	-485.58	35.832	-21.884
337	1.685	-177.12	1342.7	-33.91	-99.733	1118.8	-34.704	-344.4	1315.3	70.452	-143.85	952.78	113.74	-223.98	1351.4	142.11	-271.7	1144.4	203.51	-308	1042.7	225.11	-267.53	896.82	245.29	-313.17	793.87	265.47	-243.41	1361.1	-200.18	-231.35	1155.6	-257.58	-130.08	936.01	-269.59	-58.318	795.27	-262.08	-199.86	758.66	174.42	-131.46	584.46	140.6	-104.45	703.07	132.7	-108.19	488.09	128	-275.33	728.24	-173.34	-275.03	546.55	-132.63	-290.23	437.66	-116.78	-288.65	336.47	-34.531	-361.39	163.25	-31.101	-323.59	247.43	-36.405	-242.63	28.928	-75.785	-162.29	934.39	-155.82	-276.99	632.9	-151.94	-275.63	744.44	264.1	-203.21	636.01	-129.57	-301.98	1420.1	-23.881	-342.23	254.34	-105.64	-289.13	38.224	-44.183	-335.59	1135.9	-23.068	-414.13	74.023	3.8896	-129.33	1585.8	12.566	-165.06	671.16	158.77	-139.08	1585.2	-60.208	-360.8	980.72	55.895	-332.15	22.628	-120.58	-433.14	65.185	-77.538	-261	787.49	213.23	-252.07	1014.8	-216.35	-368.94	976.34	-57.357	-298.61	1546.2	55.502	-57.357	369.91	62.818	-220.7	1036.2	-276.21	-309.59	1555.9	-70.881	-84.606	281.3	128.76	-60.532	277.23	62.302	-62.972	185.56	61.26	56.44	66.877	90.247	85.974	65.216	127.85	-116.46	815.11	-279.98	-80.265	834.47	-220.91	-72.899	95.909	31.075	-104.73	75.624	104.58	4.8767	35.352	148.24	-135.53	36.564	49.175	-317.28	1020.7	141.75	-485.52	36.266	-21.813
338	1.69	-171.56	1341.7	-33.603	-94.265	1117.7	-34.74	-338.77	1314.3	70.869	-138.14	951.42	113.83	-218.27	1350.3	142.49	-266.44	1143.4	203.84	-303.02	1041.8	225.46	-263.04	895.84	245.79	-309.03	793.07	266.05	-238.09	1360.5	-199.78	-225.39	1155.1	-257.5	-121.99	936.58	-269.8	-48.637	796.68	-262.28	-194.49	757.76	174.68	-126.87	583.14	141.43	-99.659	701.58	132.48	-103.21	486.56	128.74	-270.92	727.44	-173.13	-271.35	545.73	-132.5	-287.25	436.85	-116.59	-286.42	335.63	-34.354	-360.5	162.94	-30.954	-322.04	246.84	-36.251	-242.61	28.847	-75.972	-157.47	933.26	-155.86	-272.94	632.13	-151.84	-271.82	743.4	264.58	-199.19	634.93	-129.3	-296.45	1419.2	-23.346	-340.56	253.9	-105.47	-289.1	38.195	-44.139	-330.08	1135.1	-22.742	-413.86	74.16	3.9933	-123.94	1585	13.015	-160.04	670.05	159.43	-133.73	1584.3	-59.756	-355.14	979.88	56.262	-332.15	22.663	-120.52	-432.93	65.433	-77.48	-256.93	786.45	213.78	-244.79	1014.1	-216.41	-363.58	975.53	-56.944	-293.19	1545.3	56.047	-49.727	369.65	63.07	-213.73	1035.9	-276.32	-304.25	1555	-70.325	-73.954	280.28	129.22	-50.132	276.87	62.65	-49.823	185.13	61.637	73.335	69.499	89.714	103.17	68.825	127.03	-107.05	815.82	-280	-70.866	835.73	-221.14	-57.293	95.151	31.497	-88.041	73.926	105.16	23.026	36.621	148.11	-118.05	33.969	49.933	-312.38	1019.8	142.09	-485.45	36.739	-21.744
